<mxfile host="app.diagrams.net" agent="Mozilla/5.0 (Macintosh; Intel Mac OS X 10_15_7) AppleWebKit/537.36 (KHTML, like Gecko) Chrome/131.0.0.0 Safari/537.36" version="27.1.1">
  <diagram name="Simplified Use Case Diagram" id="simplified-diagram">
    <mxGraphModel dx="976" dy="752" grid="1" gridSize="10" guides="1" tooltips="1" connect="1" arrows="1" fold="1" page="1" pageScale="1" pageWidth="827" pageHeight="1169" math="0" shadow="0">
      <root>
        <mxCell id="0" />
        <mxCell id="1" parent="0" />
        <mxCell id="actors-rectangle" value="" style="rounded=0;whiteSpace=wrap;html=1;fillColor=none;strokeColor=#000000;" parent="1" vertex="1">
          <mxGeometry x="50" y="160" width="150" height="520" as="geometry" />
        </mxCell>
        <mxCell id="actor-user" value="Developer&lt;div&gt;&lt;br&gt;&lt;/div&gt;" style="shape=umlActor;verticalLabelPosition=bottom;verticalAlign=top;html=1;outlineConnect=0;" parent="1" vertex="1">
          <mxGeometry x="110" y="200" width="30" height="60" as="geometry" />
        </mxCell>
        <mxCell id="WJMKunk0Zk9ODEw5wcfa-7" value="" style="rounded=0;orthogonalLoop=1;jettySize=auto;html=1;entryX=0;entryY=0.5;entryDx=0;entryDy=0;endArrow=none;startFill=0;" parent="1" target="uc-traverse-relations" edge="1">
          <mxGeometry relative="1" as="geometry">
            <mxPoint x="150" y="230" as="sourcePoint" />
          </mxGeometry>
        </mxCell>
        <mxCell id="WJMKunk0Zk9ODEw5wcfa-8" style="rounded=0;orthogonalLoop=1;jettySize=auto;html=1;entryX=0;entryY=0.5;entryDx=0;entryDy=0;endArrow=none;startFill=0;" parent="1" source="actor-github-actions" target="uc-get-model-graph" edge="1">
          <mxGeometry relative="1" as="geometry" />
        </mxCell>
        <mxCell id="actor-github-actions" value="GitHub Actions&amp;nbsp;&lt;div&gt;Workflow&lt;/div&gt;" style="shape=umlActor;verticalLabelPosition=bottom;verticalAlign=top;html=1;outlineConnect=0;" parent="1" vertex="1">
          <mxGeometry x="110" y="450" width="30" height="60" as="geometry" />
        </mxCell>
        <mxCell id="usecases-rectangle" value="" style="rounded=0;whiteSpace=wrap;html=1;fillColor=none;strokeColor=#000000;" parent="1" vertex="1">
          <mxGeometry x="220" y="50" width="470" height="630" as="geometry" />
        </mxCell>
        <mxCell id="uc-view-graph" value="Push Code" style="ellipse;whiteSpace=wrap;html=1;" parent="1" vertex="1">
          <mxGeometry x="300" y="70" width="100" height="50" as="geometry" />
        </mxCell>
        <mxCell id="uc-filter-state" value="Modify Manifest" style="ellipse;whiteSpace=wrap;html=1;" parent="1" vertex="1">
          <mxGeometry x="420" y="80" width="100" height="50" as="geometry" />
        </mxCell>
        <mxCell id="uc-filter-category" value="Install Custom Module" style="ellipse;whiteSpace=wrap;html=1;" parent="1" vertex="1">
          <mxGeometry x="440" y="140" width="100" height="50" as="geometry" />
        </mxCell>
        <mxCell id="uc-search-modules" value="Review Reports" style="ellipse;whiteSpace=wrap;html=1;" parent="1" vertex="1">
          <mxGeometry x="540" y="180" width="100" height="50" as="geometry" />
        </mxCell>
        <mxCell id="uc-get-module-graph" value="Detect Manifest Changes" style="ellipse;whiteSpace=wrap;html=1;" parent="1" vertex="1">
          <mxGeometry x="280" y="320" width="100" height="50" as="geometry" />
        </mxCell>
        <mxCell id="uc-get-model-graph" value="edit&amp;nbsp;&lt;br&gt;config files" style="ellipse;whiteSpace=wrap;html=1;" parent="1" vertex="1">
          <mxGeometry x="260" y="600" width="100" height="50" as="geometry" />
        </mxCell>
        <mxCell id="uc-detect-cycles" value="&lt;div&gt;&lt;br&gt;&lt;/div&gt;trigger&amp;nbsp;&lt;div&gt;GraphSync&lt;br&gt;m1&lt;br&gt;&lt;div&gt;&lt;br&gt;&lt;/div&gt;&lt;/div&gt;" style="ellipse;whiteSpace=wrap;html=1;" parent="1" vertex="1">
          <mxGeometry x="540" y="420" width="100" height="50" as="geometry" />
        </mxCell>
        <mxCell id="uc-traverse-relations" value="visualize modules dependecies" style="ellipse;whiteSpace=wrap;html=1;" parent="1" vertex="1">
          <mxGeometry x="550" y="240" width="120" height="70" as="geometry" />
        </mxCell>
        <mxCell id="uc-sync-data" value="trigger &lt;br&gt;Neo4jSync&lt;br&gt;m2" style="ellipse;whiteSpace=wrap;html=1;" parent="1" vertex="1">
          <mxGeometry x="410" y="560" width="100" height="50" as="geometry" />
        </mxCell>
        <mxCell id="uc-analyze-dependencies" value="Start&amp;nbsp; docker&amp;nbsp; network&amp;nbsp;" style="ellipse;whiteSpace=wrap;html=1;" parent="1" vertex="1">
          <mxGeometry x="530" y="490" width="100" height="50" as="geometry" />
        </mxCell>
        <mxCell id="conn1" value="" style="endArrow=none;html=1;rounded=0;" parent="1" source="actor-user" target="uc-view-graph" edge="1">
          <mxGeometry width="50" height="50" relative="1" as="geometry">
            <mxPoint x="150" y="230" as="sourcePoint" />
            <mxPoint x="320" y="105" as="targetPoint" />
          </mxGeometry>
        </mxCell>
        <mxCell id="conn2" value="" style="endArrow=none;html=1;rounded=0;" parent="1" source="actor-user" target="uc-filter-state" edge="1">
          <mxGeometry width="50" height="50" relative="1" as="geometry">
            <mxPoint x="150" y="230" as="sourcePoint" />
            <mxPoint x="440" y="105" as="targetPoint" />
          </mxGeometry>
        </mxCell>
        <mxCell id="conn3" value="" style="endArrow=none;html=1;rounded=0;" parent="1" source="actor-user" target="uc-filter-category" edge="1">
          <mxGeometry width="50" height="50" relative="1" as="geometry">
            <mxPoint x="150" y="230" as="sourcePoint" />
            <mxPoint x="560" y="105" as="targetPoint" />
          </mxGeometry>
        </mxCell>
        <mxCell id="conn4" value="" style="endArrow=none;html=1;rounded=0;" parent="1" source="actor-user" target="uc-search-modules" edge="1">
          <mxGeometry width="50" height="50" relative="1" as="geometry">
            <mxPoint x="150" y="230" as="sourcePoint" />
            <mxPoint x="320" y="175" as="targetPoint" />
          </mxGeometry>
        </mxCell>
        <mxCell id="conn7" value="" style="endArrow=none;html=1;rounded=0;" parent="1" source="actor-github-actions" target="uc-get-module-graph" edge="1">
          <mxGeometry width="50" height="50" relative="1" as="geometry">
            <mxPoint x="150" y="380" as="sourcePoint" />
            <mxPoint x="320" y="245" as="targetPoint" />
          </mxGeometry>
        </mxCell>
        <mxCell id="conn8" value="" style="endArrow=none;html=1;rounded=0;" parent="1" source="actor-github-actions" target="uc-sync-data" edge="1">
          <mxGeometry width="50" height="50" relative="1" as="geometry">
            <mxPoint x="150" y="380" as="sourcePoint" />
            <mxPoint x="440" y="455" as="targetPoint" />
          </mxGeometry>
        </mxCell>
        <mxCell id="conn9" value="" style="endArrow=none;html=1;rounded=0;" parent="1" target="uc-analyze-dependencies" edge="1">
          <mxGeometry width="50" height="50" relative="1" as="geometry">
            <mxPoint x="140" y="480" as="sourcePoint" />
            <mxPoint x="560" y="455" as="targetPoint" />
          </mxGeometry>
        </mxCell>
        <mxCell id="WJMKunk0Zk9ODEw5wcfa-4" style="rounded=0;orthogonalLoop=1;jettySize=auto;html=1;entryX=0.5;entryY=0.5;entryDx=0;entryDy=0;entryPerimeter=0;endArrow=none;endFill=1;startArrow=none;startFill=0;" parent="1" source="uc-detect-cycles" target="actor-github-actions" edge="1">
          <mxGeometry relative="1" as="geometry" />
        </mxCell>
        <mxCell id="WJMKunk0Zk9ODEw5wcfa-9" value="run jobs&lt;br&gt;scripts" style="ellipse;whiteSpace=wrap;html=1;" parent="1" vertex="1">
          <mxGeometry x="400" y="370" width="100" height="50" as="geometry" />
        </mxCell>
        <mxCell id="WJMKunk0Zk9ODEw5wcfa-10" value="" style="endArrow=none;html=1;rounded=0;" parent="1" target="WJMKunk0Zk9ODEw5wcfa-9" edge="1">
          <mxGeometry width="50" height="50" relative="1" as="geometry">
            <mxPoint x="130" y="480" as="sourcePoint" />
            <mxPoint x="420" y="275" as="targetPoint" />
          </mxGeometry>
        </mxCell>
        <mxCell id="cKW8eUw5_zA2RbpzGKzd-1" value="" style="rounded=0;orthogonalLoop=1;jettySize=auto;html=1;entryX=0;entryY=0.5;entryDx=0;entryDy=0;endArrow=none;startFill=0;" edge="1" target="cKW8eUw5_zA2RbpzGKzd-2" parent="1">
          <mxGeometry relative="1" as="geometry">
            <mxPoint x="140" y="230" as="sourcePoint" />
          </mxGeometry>
        </mxCell>
        <mxCell id="cKW8eUw5_zA2RbpzGKzd-2" value="visualize &lt;br&gt;knowledge Graph&amp;nbsp;&lt;div&gt;&lt;br/&gt;&lt;/div&gt;" style="ellipse;whiteSpace=wrap;html=1;" vertex="1" parent="1">
          <mxGeometry x="540" y="320" width="120" height="70" as="geometry" />
        </mxCell>
      </root>
    </mxGraphModel>
  </diagram>
</mxfile>
